<?xml version="1.0" encoding="utf-8"?>
<!-- Generator: Adobe Illustrator 26.5.0, SVG Export Plug-In . SVG Version: 6.00 Build 0)  -->
<svg version="1.1" id="Layer_1" xmlns="http://www.w3.org/2000/svg" xmlns:xlink="http://www.w3.org/1999/xlink" x="0px" y="0px"
	 viewBox="0 0 500 500" style="enable-background:new 0 0 500 500;" xml:space="preserve">
<style type="text/css">
	.st0{fill:#263238;}
	.st1{fill:#F83758;}
</style>
<g>
	<g>
		<path class="st0" d="M99.2,471.1c0-4.4,0-8.8,0-13.4c0.8,0,1.4,0,2,0c85.6,0,171.2,0,256.8,0c3.4,0,3.8-0.6,3.3-4
			c-1.5-9.2-3-18.5-4.4-27.8c-1.5-9.3-2.9-18.6-4.4-27.9c-1.3-8.3-2.7-16.7-4-25c-0.2-1.4-0.5-2.8-0.7-4.3c6.7,0,13.3,0,20,0
			c1.9,21.2,3.9,42.3,5.8,63.5c0.1,0,0.1,0,0.2,0c0.2-1.5,0.4-3,0.5-4.5c1.2-11.1,2.4-22.3,3.6-33.4c0.9-8.2,1.8-16.5,2.7-24.7
			c0.1-0.6,0.2-0.9,0.9-0.9c6.3,0,12.6,0,18.9,0c0.1,0,0.1,0.1,0.3,0.1c-0.4,2.2-0.8,4.4-1.1,6.7c-2,11.2-3.9,22.4-5.9,33.6
			c-1.7,9.7-3.4,19.3-5.1,29c-1.4,7.9-2.8,15.9-4.2,23.8c-0.2,1-0.5,1.9-0.8,2.9c-1.4,4-4.3,5.9-8.4,6.3c-0.6,0.1-1.2,0.2-1.8,0.3
			C282,471.1,190.6,471.1,99.2,471.1z"/>
		<path class="st0" d="M235.9,357.9c0.6,0,1-0.1,1.4-0.1c8.9,0,17.8-0.1,26.7,0c3,0,6,0.5,8.9,1.1c6.2,1.4,10,5.5,11.4,11.6
			c1.4,6,1.4,12.1,0.4,18.1c-0.8,5.2-3.8,8.9-9,10.5c-0.2,0.1-0.3,0.2-0.5,0.2c0,0.1,0,0.2,0.1,0.2c5.7,1.6,8.6,5.7,10,11.2
			c1.3,5.5,1.2,11.2,0.8,16.8c-0.3,4.3-1.1,8.5-2.6,12.6c-2.6,6.8-7.6,10.4-14.8,11.2c-2.2,0.3-4.4,0.4-6.6,0.4
			c-8.3,0-16.6,0-24.9,0c-0.5,0-0.9,0-1.3,0C235.9,420.4,235.9,389.2,235.9,357.9z M255.9,435.1c0.8,0.1,1.4,0.3,2.1,0.3
			c4.6,0,8.3-1.6,8.1-7.5c-0.1-3.9,0.1-7.9-0.1-11.9c0-1.6-0.4-3.2-0.8-4.8c-0.4-1.5-1.4-2.7-3-3c-2.1-0.3-4.2-0.4-6.3-0.6
			C255.9,416.9,255.9,425.9,255.9,435.1z M256.1,382.6c0,2.3,0,4.6,0,6.9c0,1.1-0.4,2.8,0.2,3.3c0.7,0.6,2.2,0.3,3.4,0.3
			c3.1,0,4.5-0.8,4.7-3.8c0.4-4.7,0.3-9.4,0.2-14.1c0-1.6-1.4-2.8-3.1-3c-1.4-0.2-2.8-0.1-4.2-0.2c-1-0.1-1.4,0.2-1.4,1.3
			C256.1,376.5,256.1,379.5,256.1,382.6z"/>
		<path class="st0" d="M156.9,404.9c0-15.1,0-30.2,0-45.3c0-1.6,0-1.6,1.7-1.6c9.8,0,19.7-0.1,29.5,0.1c6.1,0.2,11.6,2.2,15.4,7.4
			c2.3,3.1,3.4,6.7,3.6,10.5c0.3,5.7,0.2,11.4,0.3,17.1c0.1,7.9,0,15.7,0.1,23.6c0,2.4,0.2,4.7,0.1,7.1c0,5.2-0.4,10.3-2.2,15.2
			c-2.7,7.8-8.4,12-16.5,12.5c-7.2,0.4-14.5,0.2-21.7,0.3c-3,0-5.9-0.1-8.9,0c-1.2,0-1.5-0.4-1.5-1.5
			C156.9,435.2,156.9,420,156.9,404.9z M177.3,404.4c0,5.6,0,11.1,0,16.7c0,4.2,0,8.4,0,12.6c0,1.2,0.3,1.7,1.5,1.6
			c0.8-0.1,1.6,0,2.4,0.1c3.5,0.2,5.7-1.7,5.7-5.1c0-16.6,0-33.1,0-49.7c0-1.1-0.2-2.2-0.4-3.3c-0.3-1.5-1.2-2.5-2.7-2.8
			c-1.6-0.3-3.2-0.4-4.7-0.5c-1.7-0.1-1.7,0-1.7,1.6C177.3,385.2,177.3,394.8,177.3,404.4z"/>
		<path class="st0" d="M138.6,399.4c1.7,0.9,3.4,1.6,4.9,2.6c3.2,2.2,4.5,5.6,5.3,9.2c1.2,5.2,1.1,10.4,0.8,15.7
			c-0.3,4.7-1.1,9.2-2.8,13.6c-2.6,6.6-7.7,9.9-14.5,10.7c-1.9,0.2-3.7,0.3-5.6,0.3c-8.6,0-17.2,0-25.8,0c-1.2,0-1.5-0.4-1.5-1.6
			c0-30.2,0-60.4,0-90.6c0-1.2,0.4-1.6,1.6-1.5c9.8,0.1,19.7,0,29.5,0.1c3.1,0,6.1,0.7,8.9,2c4.4,1.9,7.1,5.4,8.2,10
			c0.5,2.2,0.9,4.5,1,6.7c0.1,3.7,0.2,7.5-0.3,11.2c-0.6,5.5-3.6,9.5-9.1,11.1C138.9,399.1,138.7,399.3,138.6,399.4z M119.2,435.1
			c2,0.6,3.9,0.4,5.8-0.1c2.8-0.8,4.4-2.6,4.5-5.5c0.2-4.3,0.2-8.7,0.2-13c0-1.5-0.3-3-0.6-4.5c-0.7-2.9-2.5-4.2-5.4-4.3
			c-1,0-1.9,0.1-2.9,0c-1.1-0.1-1.5,0.3-1.5,1.4c0,8.2,0,16.4,0,24.7C119.2,434.2,119.2,434.6,119.2,435.1z M119.3,382.7
			c0,2.3,0,4.6,0,6.9c0,1.1-0.3,2.8,0.3,3.3c0.7,0.6,2.2,0.3,3.4,0.3c3.3,0,4.7-1,5-4.3c0.3-4.4,0.3-8.8,0.2-13.1
			c0-2.1-1.3-3.3-3.3-3.6c-1.4-0.2-2.8-0.1-4.2-0.2c-1.1-0.1-1.5,0.4-1.4,1.5C119.4,376.5,119.3,379.6,119.3,382.7z"/>
		<path class="st0" d="M343.1,451.4c-7,0-13.8,0-20.8,0c0-2.9,0-5.8,0-8.6c-0.1,0-0.1,0-0.2,0c-0.1,0.3-0.3,0.5-0.4,0.8
			c-2.9,6.8-8.5,10-15.8,8.9c-1.3-0.2-2.5-0.4-3.7-0.8c-4-1.2-6.7-3.8-8.4-7.6c-2.2-5.4-2.7-11-2.5-16.7c0.1-2.9,0.5-5.9,1.1-8.8
			c1.3-6,5-10.3,10.8-12.5c5.4-2,10.9-3.7,16.4-5.5c2.7-0.9,2.2-0.2,2.2-3c0-2.5,0-5-0.2-7.5c0-0.8-0.4-1.6-0.7-2.4
			c-0.9-1.9-2.7-2.8-4.6-2.5c-1.7,0.3-3.2,2-3.4,3.9c-0.1,1.5-0.1,3-0.1,4.5c0,0.4,0,0.9-0.1,1.3c-6.8,0-13.4,0-20.1,0
			c-0.2-5.1,0.1-10,2.3-14.5c2.3-4.7,6.3-7.3,11.2-8.4c8.1-1.9,16.3-2.3,24.3,0.6c5.6,2.1,10,5.7,11.8,11.7c0.5,1.8,0.9,3.8,0.9,5.6
			c0.1,20.2,0,40.4,0,60.6C343.1,450.8,343.1,451.1,343.1,451.4z M321.5,409.1c-1.5,0.7-2.9,1.4-4.2,2.1c-2.9,1.7-4.6,4.2-4.7,7.6
			c-0.1,4.3-0.2,8.5-0.1,12.8c0,1.3,0.4,2.6,0.9,3.8c0.7,1.7,2.2,2.4,4.1,2.4c1.8-0.1,2.9-0.9,3.5-2.6c0.3-0.8,0.6-1.7,0.6-2.5
			c0.1-7.6,0.1-15.2,0.1-22.7C321.7,409.8,321.6,409.6,321.5,409.1z"/>
	</g>
	<g>
		<path class="st0" d="M124.5,269.7c0.2-0.4,0.4-0.9,0.5-1.3c1-5.9,4.5-9.5,10.2-11.3c12.6-3.8,25.1-7.7,37.7-11.5
			c15.7-4.8,31.4-9.6,47.1-14.3c8.5-2.6,16.8,1.9,18.7,10.3c0.6,2.5,0.4,5.4-0.3,7.8c-8.6,28.7-17.3,57.3-26.1,85.9
			c-1.6,5.4-6.5,9.3-11.8,9.6c-6.6,0.4-11.7-2.5-14.1-8.2c-2.8-6.5-5.5-13-8.2-19.6c-5-12.1-13.6-20.5-25.6-25.5
			c-6.3-2.7-12.6-5.4-18.9-8.1c-4.9-2.1-8-5.5-8.8-10.9c-0.1-0.4-0.3-0.7-0.4-1.1C124.5,270.9,124.5,270.3,124.5,269.7z"/>
		<path class="st1" d="M252.7,117.5c26.5,0,53,0,79.5,0c13.1,0,24.3,10.2,25.6,23.2c1.3,12.8,2.8,25.6,4.1,38.4
			c1.2,11.3,2.2,22.6,3.4,33.8c1,9.8,2.1,19.6,3.2,29.4c0.9,8.3,1.6,16.5,2.5,24.8c0.8,8.3,1.8,16.5,2.6,24.8
			c0.8,7.9,1.8,15.8,1.9,23.7c0.2,14.2-13.1,27.6-27.3,27.7c-20.9,0.2-41.8,0.4-62.7-0.1c-14.4-0.3-25.8-7.3-34.1-18.9
			c-8.9-12.4-10.5-26.1-6.2-40.7c2.3-7.7,5-15.2,6.9-23c5.1-20.2-9.9-37.8-26.8-40.8c-5.9-1.1-11.7-0.7-17.5,1.1
			c-5.9,1.8-11.9,3.8-17.9,5.2c-20.8,4.6-42.6-10.2-46.5-31.1c-1.2-6.3-0.4-12.5,0.2-18.8c0.7-6.7,1.4-13.4,2.2-20.1
			c0.6-5.9,1-11.8,2-17.6c2.1-12.1,13.1-21,25.4-21C199.7,117.5,226.2,117.5,252.7,117.5z"/>
		<path class="st1" d="M216.5,86.5c0,3.1,0.1,6.2,0,9.3c-0.1,3.4-1.4,6-4.6,7.5c-3,1.4-6,1.2-8.3-1.1c-1.4-1.4-2.8-3.7-2.9-5.6
			c-0.3-9.1-0.9-18.2,1.1-27.2c4.5-20.9,22.7-37.3,43.9-40.1c31-4,54.6,18.4,58.3,44.5c1.1,7.5,0.8,15.2,0.8,22.8
			c0,4.3-3.8,7.5-8.1,7.4c-4.4-0.1-7.5-3.4-7.6-7.9c-0.1-6.3,0.1-12.6-0.4-18.9c-1.1-15.8-13.9-29.6-29.6-32.1
			c-20.7-3.3-38.9,9.6-42.4,30.3c-0.6,3.6-0.1,7.3-0.1,10.9C216.7,86.5,216.6,86.5,216.5,86.5z"/>
	</g>
</g>
</svg>
