<svg xmlns="http://www.w3.org/2000/svg" xmlns:xlink="http://www.w3.org/1999/xlink" width="500" zoomAndPan="magnify" viewBox="0 0 375 374.999991" height="500" preserveAspectRatio="xMidYMid meet" version="1.0"><defs><g/><clipPath id="2632a41c61"><path d="M 140 120 L 246.84375 120 L 246.84375 224 L 140 224 Z M 140 120 " clip-rule="nonzero"/></clipPath></defs><path fill="#1c486f" d="M 170.5 114.976562 C 172.480469 114.976562 174.089844 113.371094 174.089844 111.386719 L 174.089844 104.4375 C 174.089844 95.449219 181.410156 88.128906 190.429688 88.128906 C 199.445312 88.128906 206.769531 95.449219 206.769531 104.4375 L 206.769531 111.386719 C 206.769531 113.371094 208.378906 114.976562 210.359375 114.976562 C 212.339844 114.976562 213.949219 113.371094 213.949219 111.386719 L 213.949219 105.414062 C 213.949219 92.867188 204.527344 81.839844 191.980469 81.007812 C 178.339844 80.117188 166.910156 90.972656 166.910156 104.4375 L 166.910156 111.386719 C 166.910156 113.371094 168.519531 114.976562 170.5 114.976562 Z M 170.5 114.976562 " fill-opacity="1" fill-rule="nonzero"/><g clip-path="url(#2632a41c61)"><path fill="#ef8121" d="M 245.996094 208.308594 L 238.097656 131.488281 C 237.46875 125.375 232.328125 120.75 226.179688 120.75 L 154.675781 120.75 C 148.53125 120.75 143.390625 125.402344 142.757812 131.488281 L 140.777344 150.617188 C 139.457031 163.453125 151.660156 173.472656 163.980469 169.710938 L 170.671875 167.671875 C 178.28125 165.347656 186.78125 169.195312 189.769531 177.636719 C 190.800781 180.566406 190.660156 183.78125 189.738281 186.769531 L 186.78125 196.417969 C 182.703125 209.742188 192.667969 223.210938 206.597656 223.210938 L 232.554688 223.210938 C 240.566406 223.183594 246.828125 216.261719 245.996094 208.308594 Z M 245.996094 208.308594 " fill-opacity="1" fill-rule="nonzero"/></g><path fill="#1c486f" d="M 173.199219 175.886719 L 134.519531 187.6875 C 128.890625 189.410156 128.488281 197.222656 133.914062 199.519531 L 143.132812 203.398438 C 148.015625 205.464844 151.921875 209.339844 153.988281 214.25 L 157.863281 223.46875 C 160.160156 228.898438 167.972656 228.496094 169.695312 222.867188 L 181.5 184.183594 C 183.078125 179.101562 178.3125 174.335938 173.199219 175.886719 Z M 173.199219 175.886719 " fill-opacity="1" fill-rule="nonzero"/><g fill="#ef8121" fill-opacity="0.4"><g transform="translate(116.443138, 283.874981)"><g><path d="M 2.109375 -47.75 L 15.0625 -47.75 C 18.550781 -47.75 21.082031 -46.894531 22.65625 -45.1875 C 24.226562 -43.488281 25.015625 -40.710938 25.015625 -36.859375 L 25.015625 -34.75 C 25.015625 -30.1875 23.382812 -27.460938 20.125 -26.578125 C 22.125 -26.054688 23.53125 -24.847656 24.34375 -22.953125 C 25.164062 -21.066406 25.578125 -18.566406 25.578125 -15.453125 C 25.578125 -10.378906 24.816406 -6.535156 23.296875 -3.921875 C 21.773438 -1.304688 19.03125 0 15.0625 0 L 2.109375 0 Z M 13.390625 -29.796875 C 14.210938 -29.796875 14.769531 -30.101562 15.0625 -30.71875 C 15.363281 -31.332031 15.515625 -32.191406 15.515625 -33.296875 L 15.515625 -38.078125 C 15.515625 -39.640625 14.828125 -40.421875 13.453125 -40.421875 L 11.453125 -40.421875 L 11.453125 -29.796875 Z M 12.390625 -8.390625 C 14.878906 -8.390625 16.125 -9.578125 16.125 -11.953125 L 16.125 -17.90625 C 16.125 -19.34375 15.910156 -20.429688 15.484375 -21.171875 C 15.054688 -21.921875 14.304688 -22.296875 13.234375 -22.296875 L 11.453125 -22.296875 L 11.453125 -8.453125 Z M 12.390625 -8.390625 "/></g></g></g><g fill="#ef8121" fill-opacity="0.4"><g transform="translate(143.066911, 283.874981)"><g><path d="M 2.109375 -47.75 L 15.28125 -47.75 C 18.695312 -47.75 21.253906 -46.800781 22.953125 -44.90625 C 24.660156 -43.019531 25.535156 -40.226562 25.578125 -36.53125 L 25.6875 -14.171875 C 25.71875 -9.460938 24.898438 -5.921875 23.234375 -3.546875 C 21.566406 -1.179688 18.804688 0 14.953125 0 L 2.109375 0 Z M 13.390625 -8.453125 C 15.140625 -8.453125 16.015625 -9.300781 16.015625 -11 L 16.015625 -35.640625 C 16.015625 -36.710938 15.929688 -37.515625 15.765625 -38.046875 C 15.597656 -38.585938 15.289062 -38.953125 14.84375 -39.140625 C 14.394531 -39.328125 13.707031 -39.421875 12.78125 -39.421875 L 11.734375 -39.421875 L 11.734375 -8.453125 Z M 13.390625 -8.453125 "/></g></g></g><g fill="#ef8121" fill-opacity="1"><g transform="translate(116.443138, 283.874981)"><g><path d="M 2.109375 -47.75 L 15.0625 -47.75 C 18.550781 -47.75 21.082031 -46.894531 22.65625 -45.1875 C 24.226562 -43.488281 25.015625 -40.710938 25.015625 -36.859375 L 25.015625 -34.75 C 25.015625 -30.1875 23.382812 -27.460938 20.125 -26.578125 C 22.125 -26.054688 23.53125 -24.847656 24.34375 -22.953125 C 25.164062 -21.066406 25.578125 -18.566406 25.578125 -15.453125 C 25.578125 -10.378906 24.816406 -6.535156 23.296875 -3.921875 C 21.773438 -1.304688 19.03125 0 15.0625 0 L 2.109375 0 Z M 13.390625 -29.796875 C 14.210938 -29.796875 14.769531 -30.101562 15.0625 -30.71875 C 15.363281 -31.332031 15.515625 -32.191406 15.515625 -33.296875 L 15.515625 -38.078125 C 15.515625 -39.640625 14.828125 -40.421875 13.453125 -40.421875 L 11.453125 -40.421875 L 11.453125 -29.796875 Z M 12.390625 -8.390625 C 14.878906 -8.390625 16.125 -9.578125 16.125 -11.953125 L 16.125 -17.90625 C 16.125 -19.34375 15.910156 -20.429688 15.484375 -21.171875 C 15.054688 -21.921875 14.304688 -22.296875 13.234375 -22.296875 L 11.453125 -22.296875 L 11.453125 -8.453125 Z M 12.390625 -8.390625 "/></g></g></g><g fill="#ef8121" fill-opacity="1"><g transform="translate(143.066911, 283.874981)"><g><path d="M 2.109375 -47.75 L 15.28125 -47.75 C 18.695312 -47.75 21.253906 -46.800781 22.953125 -44.90625 C 24.660156 -43.019531 25.535156 -40.226562 25.578125 -36.53125 L 25.6875 -14.171875 C 25.71875 -9.460938 24.898438 -5.921875 23.234375 -3.546875 C 21.566406 -1.179688 18.804688 0 14.953125 0 L 2.109375 0 Z M 13.390625 -8.453125 C 15.140625 -8.453125 16.015625 -9.300781 16.015625 -11 L 16.015625 -35.640625 C 16.015625 -36.710938 15.929688 -37.515625 15.765625 -38.046875 C 15.597656 -38.585938 15.289062 -38.953125 14.84375 -39.140625 C 14.394531 -39.328125 13.707031 -39.421875 12.78125 -39.421875 L 11.734375 -39.421875 L 11.734375 -8.453125 Z M 13.390625 -8.453125 "/></g></g></g><g fill="#1c486f" fill-opacity="1"><g transform="translate(179.717467, 283.874981)"><g><path d="M 2.109375 -47.75 L 15.0625 -47.75 C 18.550781 -47.75 21.082031 -46.894531 22.65625 -45.1875 C 24.226562 -43.488281 25.015625 -40.710938 25.015625 -36.859375 L 25.015625 -34.75 C 25.015625 -30.1875 23.382812 -27.460938 20.125 -26.578125 C 22.125 -26.054688 23.53125 -24.847656 24.34375 -22.953125 C 25.164062 -21.066406 25.578125 -18.566406 25.578125 -15.453125 C 25.578125 -10.378906 24.816406 -6.535156 23.296875 -3.921875 C 21.773438 -1.304688 19.03125 0 15.0625 0 L 2.109375 0 Z M 13.390625 -29.796875 C 14.210938 -29.796875 14.769531 -30.101562 15.0625 -30.71875 C 15.363281 -31.332031 15.515625 -32.191406 15.515625 -33.296875 L 15.515625 -38.078125 C 15.515625 -39.640625 14.828125 -40.421875 13.453125 -40.421875 L 11.453125 -40.421875 L 11.453125 -29.796875 Z M 12.390625 -8.390625 C 14.878906 -8.390625 16.125 -9.578125 16.125 -11.953125 L 16.125 -17.90625 C 16.125 -19.34375 15.910156 -20.429688 15.484375 -21.171875 C 15.054688 -21.921875 14.304688 -22.296875 13.234375 -22.296875 L 11.453125 -22.296875 L 11.453125 -8.453125 Z M 12.390625 -8.390625 "/></g></g></g><g fill="#1c486f" fill-opacity="1"><g transform="translate(206.341241, 283.874981)"><g><path d="M 9.34375 0.4375 C 6.1875 0.4375 4.023438 -0.609375 2.859375 -2.703125 C 1.691406 -4.796875 1.109375 -7.785156 1.109375 -11.671875 C 1.109375 -14.859375 1.523438 -17.304688 2.359375 -19.015625 C 3.191406 -20.722656 4.347656 -21.972656 5.828125 -22.765625 C 7.316406 -23.554688 9.582031 -24.4375 12.625 -25.40625 L 15.28125 -26.296875 L 15.28125 -30.46875 C 15.28125 -31.539062 15.066406 -32.363281 14.640625 -32.9375 C 14.222656 -33.507812 13.71875 -33.796875 13.125 -33.796875 C 12.601562 -33.796875 12.144531 -33.554688 11.75 -33.078125 C 11.363281 -32.597656 11.171875 -31.945312 11.171875 -31.125 L 11.171875 -28.6875 L 1.71875 -28.6875 L 1.71875 -30.015625 C 1.71875 -34.023438 2.65625 -36.878906 4.53125 -38.578125 C 6.40625 -40.285156 9.453125 -41.140625 13.671875 -41.140625 C 17.046875 -41.140625 19.789062 -40.257812 21.90625 -38.5 C 24.019531 -36.738281 25.078125 -34.242188 25.078125 -31.015625 L 25.078125 0 L 15.40625 0 L 15.40625 -4.84375 C 14.914062 -3.164062 14.144531 -1.863281 13.09375 -0.9375 C 12.039062 -0.0195312 10.789062 0.4375 9.34375 0.4375 Z M 13.171875 -7.109375 C 13.910156 -7.109375 14.4375 -7.414062 14.75 -8.03125 C 15.070312 -8.644531 15.234375 -9.394531 15.234375 -10.28125 L 15.234375 -21.625 C 13.785156 -21.070312 12.71875 -20.367188 12.03125 -19.515625 C 11.34375 -18.660156 11 -17.472656 11 -15.953125 L 11 -10.734375 C 11 -8.316406 11.722656 -7.109375 13.171875 -7.109375 Z M 13.171875 -7.109375 "/></g></g></g><g fill="#1c486f" fill-opacity="1"><g transform="translate(233.187339, 283.874981)"><g><path d="M 1.171875 0.609375 L 5.84375 0.609375 C 6.507812 0.609375 6.84375 0.332031 6.84375 -0.21875 C 6.84375 -0.476562 6.820312 -0.679688 6.78125 -0.828125 L 0.4375 -40.6875 L 9.734375 -40.6875 L 11.5625 -20.84375 L 12.453125 -10.734375 L 13.515625 -20.84375 L 15.671875 -40.6875 L 25.015625 -40.6875 L 17.453125 2.109375 C 17.191406 3.703125 16.660156 4.878906 15.859375 5.640625 C 15.066406 6.398438 13.820312 6.78125 12.125 6.78125 L 1.171875 6.78125 Z M 1.171875 0.609375 "/></g></g></g></svg>