<svg width="260" height="140" xmlns="http://www.w3.org/2000/svg"><defs><clipPath clipPathUnits="userSpaceOnUse" id="a"><path d="M0 1080h1920V0H0z" transform="translate(-403.85 -671.963)"/></clipPath><clipPath clipPathUnits="userSpaceOnUse" id="b"><path d="M0 1080h1920V0H0z" transform="translate(-1232.907 -529.523)"/></clipPath><clipPath clipPathUnits="userSpaceOnUse" id="c"><path d="M0 1080h1920V0H0z" transform="translate(-753.623 -570.548)"/></clipPath><clipPath clipPathUnits="userSpaceOnUse" id="d"><path d="M0 1080h1920V0H0z" transform="translate(-955.925 -484.131)"/></clipPath><clipPath clipPathUnits="userSpaceOnUse" id="e"><path d="M0 1080h1920V0H0z" transform="translate(-1463.298 -461.863)"/></clipPath><clipPath clipPathUnits="userSpaceOnUse" id="f"><path d="M0 1080h1920V0H0z" transform="translate(-1738.738 -618.723)"/></clipPath><clipPath clipPathUnits="userSpaceOnUse" id="g"><path d="M0 1080h1920V0H0z" transform="translate(-386.491 -425.692)"/></clipPath><clipPath clipPathUnits="userSpaceOnUse" id="h"><path d="M0 1080h1920V0H0z" transform="translate(-310.35 -737.485)"/></clipPath></defs><path d="M0 0c43.897 0 87.831-1.09 131.681.344 35.368 1.157 55.528-21.137 58.293-54.903 4.555-55.619 10.586-111.117 15.844-166.68 3.95-41.747 7.803-83.505 11.401-125.284 1.16-13.461 2.394-27.047 1.798-40.496-1.108-24.959-29.019-48.371-55.216-47.097-32.317 1.571-64.778.866-97.16.261-42.607-.797-78.139 34.654-82.774 76.001-2.405 21.452 4.361 41.14 10.141 61.132 5.192 17.954 10.62 35.635 4.932 54.934-9.485 32.187-44.668 57.819-81.583 44.079-13.125-4.886-26.761-9.55-40.548-11.294-34.495-4.364-69.286 28.312-72.316 61.042-1.318 14.231.259 28.801 1.307 43.16 1.449 19.854 4.043 39.626 5.41 59.484C-187.059-20.182-163.732.824-137.136.265-91.442-.695-45.714 0 0 0" style="fill:#ef8121;fill-opacity:1;fill-rule:nonzero;stroke:none" transform="matrix(1.33333 0 0 -1.33333 538.466 544.05)" clip-path="url(#a)"/><path d="M0 0c5.729 0 9.906-.06 14.08.012C24.361.19 29.648 3.829 30.129 13.909c.861 18.048 1.09 36.189.203 54.227-.565 11.5-17.796 18.827-27.871 12.729-1.251-.758-2.35-2.816-2.359-4.277C-.04 51.517 0 26.445 0 0m-.114-111.913c0-15.537-.219-31.08.207-46.606.074-2.723 2.359-7.229 4.47-7.762 14.103-3.561 30.178 6.403 30.751 20.042.91 21.647 1.239 43.429-.238 65.022-1.237 18.083-9.604 23.746-27.139 23.447-6.462-.11-8.28-2.509-8.162-8.413.304-15.239.102-30.486.111-45.73M66.295-24.91c30.248-13.069 35.553-37.513 38.393-63.145 3.121-28.168 1.211-56.106-4.442-83.88-5.248-25.788-17.283-46.725-43.542-57.262-5.737-2.302-12.301-3.653-18.505-3.722-34.492-.38-68.991-.238-103.488-.232-1.136.001-2.271.453-4.042.829-.152 3.324-.421 6.467-.422 9.611-.021 116.955.066 233.911-.194 350.866-.019 8.497 1.651 11.631 11.354 11.391 29.032-.72 58.095-.229 87.146-.294 4.222-.01 8.451-.379 12.662-.744 34.951-3.029 53.803-22.369 57.671-53.776 2.836-23.027 2.562-46.764.419-69.901-1.64-17.697-11.554-32.614-33.01-39.741" style="fill:#1c486f;fill-opacity:1;fill-rule:nonzero;stroke:none" transform="matrix(1.33333 0 0 -1.33333 1643.876 733.969)" clip-path="url(#b)"/><path d="M0 0c0-11.138-.241-22.285.173-33.409.1-2.71 1.627-6.785 3.731-7.777 12.69-5.984 27.356 1.9 28.173 15.326.924 15.191 1.375 30.458.972 45.665-.477 18.041-5.613 21.966-23.944 21.566-6.543-.143-9.338-2.396-9.178-8.837C.196 21.695.001 10.845 0 0m-.003-153.411v-45.665c0-.292-.102-.647.03-.868 1.611-2.706 2.716-7.143 4.982-7.8 14.73-4.273 31.614 6.545 32.229 21.46.867 21.036 1.108 42.187-.167 63.187-1.11 18.279-10.23 25.383-27.029 25.182-7.195-.086-10.356-2.48-10.166-9.835.394-15.212.119-30.44.121-45.661m68.611 87.429c5.929-4.369 12.012-8.014 17.042-12.715 14.787-13.825 17.752-32.524 19.285-50.833 2.424-28.949 1.536-57.932-5.131-86.534-5.884-25.242-18.864-44.894-44.811-54.242-6.092-2.195-12.985-3.123-19.525-3.191-31.472-.328-62.951-.024-94.425-.282-6.6-.054-9.058 1.875-9.049 8.494.149 118.142.115 236.284.089 354.426-.001 4.787.348 8.863 7.013 8.759 34.766-.546 69.59.05 104.286-1.732 35.525-1.825 52.71-24.447 56.094-55.077 2.297-20.782 1.68-42.034.424-62.967-1.106-18.425-9.383-33.808-28.262-41.709-1.025-.429-1.805-1.407-3.03-2.397" style="fill:#ef8121;fill-opacity:1;fill-rule:nonzero;stroke:none" transform="matrix(1.33333 0 0 -1.33333 1004.83 679.27)" clip-path="url(#c)"/><path d="M0 0c0-10.557-.002-21.114 0-31.671.007-26.099-.132-52.199.189-78.295.046-3.727 1.15-9.162 3.778-10.831 9.689-6.153 27.566 1.241 30.623 12.135 1.177 4.195 1.758 8.677 1.766 13.029.114 60.995.188 121.991-.05 182.986-.029 7.532-1.13 15.258-3.121 22.539-2.812 10.281-13.264 15.009-26.497 12.425-9.822-1.918-6.443-10.204-6.501-15.87C-.177 70.968.003 35.483 0 0m-68.965-1.342c-.001 57.446-.006 114.892.003 172.338.002 13.293.023 13.295 14.099 13.295 26.325.001 52.659.372 78.972-.179 10.784-.226 21.87-1.233 32.217-3.997 25.27-6.752 38.376-25.062 44.467-48.533 2.269-8.743 3.763-17.926 3.809-26.917.346-68.573.513-137.149.116-205.721-.113-19.516-5.385-38.287-15.026-55.563-2.674-4.789-6.388-9.486-10.752-12.855-13.936-10.755-29.455-17.943-47.923-17.825-29.652.189-59.312.362-88.957-.143-9.005-.154-11.22 2.901-11.179 11.124.291 58.324.155 116.65.154 174.976" style="fill:#ef8121;fill-opacity:1;fill-rule:nonzero;stroke:none" transform="matrix(1.33333 0 0 -1.33333 1274.567 794.492)" clip-path="url(#d)"/><path d="M0 0c-14.695-1.745-28.784-11.678-29.911-23.602-2.133-22.578-2.321-45.351-2.58-68.051-.049-4.293 2.421-9.378 5.387-12.713 2.731-3.071 7.686-5.824 11.676-5.843 3.508-.017 8.904 3.218 10.178 6.295 2.838 6.856 4.701 14.466 5.022 21.847.71 16.353.226 32.755.228 49.138V0m72.333-165.105H1.393v30.91c-7.453-8.863-12.536-16.814-19.516-22.629-6.065-5.054-13.971-10.057-21.591-10.975-28.026-3.377-49.752 7.655-58.48 34.489-11.682 35.916-12.928 72.709-1.259 108.973 5.539 17.213 16.681 31.053 34.758 38.128 18.106 7.087 36.116 14.49 54.575 20.602C-1.95 37.098.856 40.831.134 48.878c-1.043 11.626-.43 23.419-1.925 34.97-1.198 9.257-8.281 14.803-15.691 13.971-9.067-1.018-12.713-7.287-13.645-15.172-.685-5.799-.646-11.691-.688-17.543-.039-5.301-2.007-8.036-8.036-7.965-18.453.217-36.911.16-55.366.039-5.011-.033-6.795 1.904-6.959 6.779-.617 18.355 1.095 36.531 8.535 53.396 6.867 15.565 18.919 27.317 36.146 32.212 27.534 7.823 55.571 9.793 82.871-.188 29.154-10.66 47.183-34.192 47.498-67.182.768-80.585.262-161.182.232-241.775-.001-1.694-.463-3.389-.773-5.525" style="fill:#1c486f;fill-opacity:1;fill-rule:nonzero;stroke:none" transform="matrix(1.33333 0 0 -1.33333 1951.064 824.182)" clip-path="url(#e)"/><path d="M0 0c-8.389-50.021-16.556-98.157-24.513-146.327-8.351-50.554-16.445-101.149-24.768-151.707-2.937-17.843-6.206-35.631-9.352-53.439-3.071-17.387-18.307-29.059-36.052-29.276-27.494-.337-930.086-.089-958.437-.089v48.821c10.554 0 895.603-.07 905.559.02 9.864.09 12.783 3.195 11.365 12.593-8.095 53.677-16.328 107.332-24.453 161.004a71025.7 71025.7 0 0 0-21.92 145.864c-.53 3.552-.511 7.185-.806 11.672h68.068l19.88-230.111 2.653.065c1.964 19.238 3.917 38.477 5.893 57.714 4.164 40.512 8.38 81.02 12.488 121.538 1.431 14.109 2.833 28.229 3.797 42.375.44 6.456 2.103 9.665 9.627 9.463C-41.08-.352-21.166 0 0 0" style="fill:#1c486f;fill-opacity:1;fill-rule:nonzero;stroke:none" transform="matrix(1.33333 0 0 -1.33333 2318.317 615.036)" clip-path="url(#f)"/><path d="M0 0c-1.973-7.594-4.397-17.856-7.312-27.977-12.438-43.189-25.03-86.333-37.53-129.505-.921-3.181-1.546-6.447-2.318-9.672-2.942-12.288-10.755-19.519-22.247-20.596-11.842-1.109-20.632 4.151-25.54 16.061-5.05 12.25-9.18 24.885-14.418 37.05-8.693 20.187-21.23 37.022-42.269 46.213-13.225 5.778-26.191 12.15-39.231 18.345-10.326 4.905-15.223 13.782-14.241 25.951.911 11.293 7.284 19.393 17.338 23.209 13.818 5.244 28.294 8.737 42.402 13.25C-108.917 3.989-72.548 15.9-36.08 27.503-17.134 33.531-.075 21.666 0 0" style="fill:#1c486f;fill-opacity:1;fill-rule:nonzero;stroke:none" transform="matrix(1.33333 0 0 -1.33333 515.322 872.411)" clip-path="url(#g)"/><path d="M0 0c-1.782 24.795 6.8 49.673 24.128 71.511 4.247 5.352 9.831 9.878 15.448 13.877 22.352 15.908 46.998 24.227 74.198 16.272 31.357-9.17 53.104-29.84 65.283-60.245 8.544-21.329 8.139-43.722 7.45-66.074-.28-9.083-6.246-14.523-14.289-14.169-7.459.328-12.91 6.077-13.141 14.515-.265 9.656.139 19.331-.151 28.986-.833 27.717-12.2 48.625-37.349 62.618-15.536 8.644-30.857 10.012-46.813 5.02-26.209-8.201-45.61-34.696-46.921-62.765-.506-10.849-.1-21.738-.271-32.606-.151-9.622-5.554-15.717-13.703-15.781C5.643-38.905.364-33.096.041-23.22-.175-16.584 0-9.935 0 0" style="fill:#ef8121;fill-opacity:1;fill-rule:nonzero;stroke:none" transform="matrix(1.33333 0 0 -1.33333 413.8 456.686)" clip-path="url(#h)"/></svg>